<?xml version="1.0" encoding="UTF-8" standalone="no"?>
<svg
   id="svg"
   version="1.1"
   width="18.049973"
   height="24"
   viewBox="0 0 18.049973 24"
   sodipodi:docname="image2vector.svg"
   inkscape:version="1.2 (1:1.2+202206011327+fc4e4096c5)"
   xmlns:inkscape="http://www.inkscape.org/namespaces/inkscape"
   xmlns:sodipodi="http://sodipodi.sourceforge.net/DTD/sodipodi-0.dtd"
   xmlns="http://www.w3.org/2000/svg"
   xmlns:svg="http://www.w3.org/2000/svg">
  <defs
     id="defs11" />
  <sodipodi:namedview
     id="namedview9"
     pagecolor="#505050"
     bordercolor="#eeeeee"
     borderopacity="1"
     inkscape:showpageshadow="0"
     inkscape:pageopacity="0"
     inkscape:pagecheckerboard="0"
     inkscape:deskcolor="#505050"
     showgrid="false"
     inkscape:zoom="13.350176"
     inkscape:cx="16.7039"
     inkscape:cy="12.059766"
     inkscape:window-width="1366"
     inkscape:window-height="736"
     inkscape:window-x="0"
     inkscape:window-y="0"
     inkscape:window-maximized="1"
     inkscape:current-layer="svg" />
  <rect
     style="fill:#ffffff;stroke-width:0.427832;stroke-linecap:square;stroke-linejoin:round;paint-order:stroke fill markers"
     id="rect228"
     width="16.351284"
     height="21.749378"
     x="0.84639007"
     y="1.1252956"
     ry="3.0442059" />
  <path
     id="rect277"
     style="fill:#000000;stroke-width:0.472192;stroke-linecap:square;stroke-linejoin:round;paint-order:stroke fill markers"
     d="M 3.359375 0 C 1.4983687 0 -2.9605918e-16 1.4983691 0 3.359375 L 0 20.640625 C 0 22.501631 1.4983687 24 3.359375 24 L 14.691406 24 C 16.552415 24 18.050781 22.501631 18.050781 20.640625 L 18.050781 3.359375 C 18.050781 1.4983691 16.552415 -2.9605918e-16 14.691406 0 L 3.359375 0 z M 3.890625 1.125 L 14.154297 1.125 C 15.840785 1.125 17.197266 2.4834353 17.197266 4.1699219 L 17.197266 19.830078 C 17.197266 21.516564 15.840785 22.875 14.154297 22.875 L 3.890625 22.875 C 2.2041382 22.875 0.84570312 21.516564 0.84570312 19.830078 L 0.84570312 4.1699219 C 0.84570312 2.4834353 2.2041382 1.125 3.890625 1.125 z M 4.78125 2.6367188 C 4.3576616 2.6374571 4.3117773 2.6462241 4.2519531 2.6796875 C 4.0719237 2.7803483 4.0116937 3.0319801 4.1210938 3.21875 C 4.2132417 3.375995 4.3608198 3.4238281 4.7480469 3.4238281 C 5.0714384 3.4238281 5.1053319 3.4396863 5.0488281 3.5527344 C 5.0344021 3.5815973 5.0120519 3.6499369 4.9980469 3.7050781 C 4.9841019 3.7601591 4.957036 3.8355246 4.9375 3.8730469 C 4.917964 3.9105088 4.9005106 3.9608029 4.9003906 3.984375 C 4.9003304 4.007887 4.8857615 4.0319675 4.8671875 4.0390625 C 4.8486735 4.0462225 4.8273764 4.0919185 4.8183594 4.140625 C 4.8093394 4.189272 4.7872032 4.2630472 4.7695312 4.3027344 C 4.7517993 4.3424213 4.7299601 4.4005211 4.7207031 4.4335938 C 4.7115031 4.4666667 4.688886 4.511406 4.671875 4.53125 C 4.654924 4.551093 4.6309525 4.6040894 4.6171875 4.6503906 C 4.5606846 4.841069 4.4647413 5.0795064 4.3828125 5.2324219 C 4.3639985 5.2675388 4.3476563 5.3151896 4.3476562 5.3398438 C 4.3476562 5.3644377 4.3272292 5.4253012 4.3007812 5.4746094 C 4.2743343 5.5239773 4.2519531 5.5794966 4.2519531 5.5976562 C 4.2519531 5.6157562 4.229573 5.6577923 4.203125 5.6914062 C 4.176677 5.7250802 4.15625 5.7754346 4.15625 5.8027344 C 4.15625 5.8519223 4.097887 5.9999575 4.0097656 6.171875 C 3.9846997 6.220821 3.9628906 6.277361 3.9628906 6.2988281 C 3.9628906 6.4461518 3.8109166 6.5742187 3.6367188 6.5742188 C 3.5820788 6.5742188 3.4784806 6.6352798 3.3691406 6.7304688 C 3.2810797 6.8071977 3.2895236 7.0937518 3.3828125 7.1914062 C 3.6335923 7.453883 5.1218798 7.4540619 5.3632812 7.1914062 C 5.4777895 7.0668728 5.4618395 6.8290751 5.3300781 6.6972656 C 5.2238638 6.5910135 5.2176069 6.5888402 4.9609375 6.5585938 L 4.7929688 6.5390625 L 4.7851562 6.4472656 C 4.7801663 6.3869527 4.7910963 6.3385083 4.8164062 6.3105469 C 4.8377442 6.2869749 4.8657413 6.2294457 4.8789062 6.1816406 C 4.9112452 6.0645033 4.8769185 6.068475 5.9335938 6.0761719 L 6.8574219 6.0820312 L 6.9140625 6.1835938 C 6.9500685 6.2482957 6.9732565 6.3323743 6.9765625 6.4121094 L 6.9804688 6.5390625 L 6.8125 6.5585938 C 6.55559 6.5888397 6.5514988 6.590496 6.4316406 6.7070312 C 6.206048 6.926393 6.3013943 7.2028757 6.6425781 7.3203125 C 7.020789 7.4504984 8.212252 7.3736846 8.3769531 7.2089844 C 8.5650973 7.020771 8.4028523 6.5742188 8.1464844 6.5742188 C 7.9875535 6.5742188 7.9102837 6.5324244 7.8789062 6.4277344 C 7.8633973 6.3759004 7.8360914 6.3213729 7.8183594 6.3066406 C 7.8006874 6.2919686 7.7871094 6.2662669 7.7871094 6.2480469 C 7.7871094 6.2297669 7.7647292 6.1743683 7.7382812 6.125 C 7.7118323 6.075693 7.6894531 6.0185808 7.6894531 6 C 7.6894531 5.981419 7.6665628 5.9164426 7.6386719 5.8554688 C 7.5340128 5.6264898 7.522334 5.5978059 7.4863281 5.4980469 C 7.3986279 5.254753 7.3728442 5.1935676 7.3398438 5.1464844 C 7.3206088 5.1190044 7.3051085 5.0756471 7.3046875 5.0488281 C 7.3042666 5.0220092 7.2889472 4.978802 7.2695312 4.953125 C 7.2501163 4.927389 7.234375 4.8895856 7.234375 4.8691406 C 7.234375 4.8364287 7.1701846 4.6910658 7.0761719 4.5058594 C 7.0594019 4.4727864 7.0385539 4.3999733 7.0292969 4.34375 C 7.0200369 4.2875271 7.0031875 4.2421875 6.9921875 4.2421875 C 6.9811275 4.2421875 6.9618126 4.2061863 6.9472656 4.1621094 C 6.9327186 4.1180324 6.8991938 4.0395738 6.8730469 3.9882812 C 6.8468989 3.9369283 6.8242187 3.8713216 6.8242188 3.8417969 C 6.8242188 3.8123319 6.8149974 3.7810145 6.8027344 3.7734375 C 6.7904721 3.7658616 6.7678821 3.7193503 6.7519531 3.6699219 C 6.7360241 3.6204934 6.7110905 3.5662063 6.6972656 3.5488281 C 6.665407 3.5087202 6.5841993 3.2900804 6.5664062 3.1953125 C 6.5589529 3.1556254 6.5323975 3.0979756 6.5078125 3.0664062 C 6.4832275 3.0348371 6.4648438 2.993551 6.4648438 2.9746094 C 6.4648438 2.9556684 6.4501247 2.9155817 6.4335938 2.8867188 C 6.4170648 2.8577948 6.3927302 2.7911973 6.3789062 2.7382812 L 6.3535156 2.6425781 L 5.3457031 2.6386719 C 5.1056704 2.6375319 4.922447 2.6364683 4.78125 2.6367188 z M 5.8515625 3.8027344 C 5.8974605 3.7987044 5.9594777 3.8456674 6.0039062 3.9375 C 6.0316172 3.9948059 6.0546875 4.0588516 6.0546875 4.0800781 C 6.0546875 4.1013051 6.0711488 4.1480849 6.0898438 4.1855469 C 6.1805497 4.3675062 6.2480469 4.5225214 6.2480469 4.546875 C 6.2480469 4.561727 6.2634261 4.6046952 6.2832031 4.6425781 C 6.3029191 4.6804611 6.3201915 4.7315059 6.3203125 4.7558594 C 6.3203727 4.7802134 6.3407395 4.8276541 6.3671875 4.8613281 C 6.3936355 4.8949421 6.4160156 4.9407621 6.4160156 4.9628906 C 6.4160156 4.9850796 6.4317569 5.0230922 6.4511719 5.0488281 C 6.4943308 5.1058931 6.4977593 5.1838712 6.4589844 5.2226562 C 6.4237004 5.2579532 5.3655472 5.2633366 5.3105469 5.2285156 C 5.2809739 5.2098146 5.2801655 5.1928289 5.3046875 5.125 C 5.3207975 5.080382 5.3335634 5.028647 5.3339844 5.0097656 C 5.3343452 4.9908236 5.3620113 4.9216135 5.3945312 4.8554688 C 5.4270512 4.7893238 5.453005 4.7221244 5.453125 4.7070312 C 5.4532452 4.6918783 5.4703974 4.6736526 5.4902344 4.6660156 C 5.5100704 4.6584356 5.5253906 4.6240587 5.5253906 4.5898438 C 5.5253906 4.5273068 5.5846573 4.3752733 5.6679688 4.21875 C 5.6925537 4.172448 5.7211518 4.0994546 5.7304688 4.0566406 C 5.7397287 4.0137667 5.7573283 3.9723607 5.7695312 3.9648438 C 5.7817332 3.9572638 5.7910156 3.930964 5.7910156 3.90625 C 5.7910156 3.8398231 5.8158645 3.8058726 5.8515625 3.8027344 z M 9.4492188 7.890625 C 9.3800328 7.886605 9.3131152 7.9157686 9.25 7.9765625 C 9.1560481 8.0670614 9.0747343 8.1797368 9.0527344 8.2480469 C 9.0443144 8.2742048 9.0019633 8.3333548 8.9589844 8.3808594 C 8.9159454 8.4283633 8.8584801 8.5098555 8.8320312 8.5605469 C 8.8055823 8.6112988 8.755117 8.6905075 8.71875 8.7363281 C 8.682384 8.7821491 8.6523438 8.8279377 8.6523438 8.8398438 C 8.6523438 8.8595067 8.5627476 9.0000126 8.53125 9.0292969 C 8.5193488 9.0403611 8.2798263 9.3925306 8.1953125 9.5234375 C 8.0984752 9.6734069 7.9600478 9.8637296 7.9101562 9.9179688 C 7.8795003 9.9512217 7.8390374 10.009802 7.8183594 10.048828 C 7.7976814 10.087918 7.7687532 10.134273 7.7539062 10.150391 C 7.7391193 10.166511 7.7041833 10.206254 7.6777344 10.240234 C 7.6512864 10.274264 7.6110326 10.326904 7.5878906 10.355469 C 7.5647476 10.384089 7.5449819 10.413995 7.5449219 10.421875 C 7.5448618 10.429775 7.4979396 10.490492 7.4394531 10.556641 C 7.2668169 10.75201 7.1957034 10.834817 7.0625 11 C 6.9931931 11.08599 6.9063485 11.186216 6.8691406 11.222656 C 6.8319327 11.259156 6.8007812 11.296818 6.8007812 11.304688 C 6.8007812 11.319057 6.4993196 11.689576 6.4511719 11.734375 C 6.4369259 11.747605 6.3767867 11.817865 6.3183594 11.890625 C 6.2598724 11.963385 6.2060713 12.028542 6.1992188 12.035156 C 6.1923688 12.041756 6.1562886 12.088764 6.1191406 12.138672 C 6.0819327 12.188522 6.0288535 12.255239 6 12.287109 C 5.8938458 12.404186 5.3101009 13.172266 5.2890625 13.222656 C 5.2841325 13.234506 5.1991209 13.361122 5.1015625 13.505859 C 5.0040646 13.650537 4.9257812 13.779591 4.9257812 13.791016 C 4.9257812 13.802436 4.9012087 13.841506 4.8710938 13.878906 C 4.8410388 13.916306 4.7913531 13.997199 4.7617188 14.058594 C 4.7320848 14.119994 4.69147 14.184876 4.671875 14.201172 C 4.652219 14.217472 4.6367188 14.242723 4.6367188 14.257812 C 4.6367188 14.272902 4.6143386 14.325689 4.5878906 14.375 C 4.5614427 14.42437 4.5410156 14.477364 4.5410156 14.494141 C 4.5410156 14.510981 4.5186355 14.56593 4.4921875 14.615234 C 4.4657395 14.664604 4.4434194 14.717778 4.4433594 14.734375 C 4.4432391 14.750915 4.427228 14.798206 4.40625 14.837891 C 4.2163632 15.1976 4.2752193 16.43049 4.4980469 16.748047 C 4.5210089 16.780757 4.5410156 16.823637 4.5410156 16.841797 C 4.5410156 16.900067 4.6681374 17.095512 4.8496094 17.314453 C 4.9238453 17.403993 5.1970457 17.615234 5.2382812 17.615234 C 5.2504232 17.615234 5.2710313 17.637603 5.2851562 17.664062 C 5.2992822 17.690522 5.3289924 17.710937 5.3496094 17.710938 C 5.3702874 17.710938 5.4160685 17.727274 5.4511719 17.746094 C 5.6864416 17.872251 5.953488 17.961607 6.2070312 17.998047 C 6.3105408 18.012897 6.416161 18.035238 6.4414062 18.048828 C 6.5097512 18.085388 7.1491836 18.105752 7.3046875 18.076172 C 7.6455708 18.011292 7.8548518 17.931964 8.0566406 17.791016 C 8.1193356 17.747296 8.1783034 17.710938 8.1875 17.710938 C 8.1967 17.710938 8.2273084 17.688929 8.2558594 17.662109 C 8.3761999 17.549001 8.4272137 17.681527 8.3378906 17.876953 C 8.3099997 17.937923 8.2730514 18.02086 8.2558594 18.060547 C 8.2169084 18.150567 8.0805653 18.432003 8.0527344 18.480469 C 8.0413734 18.500309 7.9947522 18.590392 7.9511719 18.679688 C 7.9075329 18.768987 7.8647257 18.841797 7.8554688 18.841797 C 7.8462688 18.841797 7.827588 18.871823 7.8125 18.908203 C 7.769401 19.012172 7.7024998 19.132592 7.6777344 19.150391 C 7.6371004 19.179671 7.546875 19.321314 7.546875 19.355469 C 7.546875 19.373809 7.525667 19.406478 7.5 19.429688 C 7.474273 19.452957 7.445855 19.502828 7.4375 19.541016 C 7.42914 19.579196 7.4125936 19.61749 7.4003906 19.625 C 7.3316847 19.66745 7.4213659 19.850472 7.5429688 19.916016 C 7.6797788 19.989676 11.351464 19.982423 11.515625 19.908203 C 11.701425 19.824203 11.712024 19.67567 11.548828 19.408203 C 11.516548 19.355283 11.473255 19.275416 11.453125 19.232422 C 11.433045 19.189422 11.407964 19.154297 11.396484 19.154297 C 11.385064 19.154297 11.36094 19.119162 11.34375 19.076172 C 11.32656 19.033182 11.282994 18.959794 11.246094 18.912109 C 11.209124 18.864369 11.166284 18.799207 11.152344 18.767578 C 11.138454 18.735888 11.102292 18.666198 11.070312 18.613281 C 10.988863 18.478585 10.863281 18.228924 10.863281 18.199219 C 10.863281 18.185569 10.848538 18.161824 10.830078 18.146484 C 10.811628 18.131154 10.78984 18.080977 10.78125 18.035156 C 10.77265 17.989336 10.756161 17.953125 10.744141 17.953125 C 10.732121 17.953125 10.715391 17.910938 10.707031 17.861328 C 10.698631 17.811718 10.687601 17.754189 10.681641 17.732422 C 10.661981 17.660022 10.740886 17.605345 10.794922 17.654297 C 10.841562 17.696507 10.891314 17.726552 11.027344 17.798828 C 11.070324 17.821618 11.105469 17.849155 11.105469 17.859375 C 11.105469 17.869595 11.148282 17.89043 11.201172 17.90625 C 11.254072 17.92212 11.296875 17.943505 11.296875 17.953125 C 11.296875 17.962725 11.357101 17.978961 11.431641 17.988281 C 11.506171 17.997581 11.618676 18.020543 11.679688 18.039062 C 11.806759 18.077672 12.341205 18.085961 12.433594 18.050781 C 12.465874 18.038511 12.605017 18.01521 12.742188 18 C 12.879357 17.98485 13.026703 17.95633 13.068359 17.9375 C 13.110079 17.91862 13.161653 17.904297 13.183594 17.904297 C 13.205534 17.904297 13.315327 17.861514 13.427734 17.808594 C 13.540139 17.755674 13.637168 17.710938 13.642578 17.710938 C 13.724028 17.710938 14.349609 17.149293 14.349609 17.076172 C 14.349609 17.060292 14.391789 16.990966 14.443359 16.921875 C 14.494879 16.852785 14.544255 16.75811 14.552734 16.712891 C 14.561234 16.667731 14.584276 16.601374 14.603516 16.564453 C 14.622806 16.527533 14.638552 16.477743 14.638672 16.455078 C 14.638732 16.432408 14.662103 16.358516 14.689453 16.289062 C 14.757863 16.115401 14.751821 15.214452 14.681641 15.115234 C 14.658491 15.082524 14.638732 15.027575 14.638672 14.994141 C 14.638672 14.960711 14.623979 14.904616 14.605469 14.869141 C 14.586959 14.833661 14.563937 14.770608 14.554688 14.728516 C 14.535268 14.640066 14.277298 14.120919 14.222656 14.060547 C 14.202456 14.038177 14.173293 13.99206 14.158203 13.958984 C 14.112823 13.859404 13.997705 13.666514 13.935547 13.585938 C 13.925327 13.572708 13.888616 13.519711 13.853516 13.466797 C 13.681298 13.207387 13.64494 13.156366 13.568359 13.0625 C 13.555139 13.04626 13.512146 12.985307 13.472656 12.925781 C 13.376536 12.780862 13.167173 12.515809 13.103516 12.458984 C 13.075266 12.433784 13.052734 12.399232 13.052734 12.382812 C 13.052734 12.366393 13.002866 12.301302 12.943359 12.238281 C 12.883849 12.175261 12.835997 12.117193 12.835938 12.109375 C 12.835878 12.101575 12.800732 12.056726 12.757812 12.009766 C 12.714893 11.962866 12.631475 11.865128 12.572266 11.792969 C 12.513116 11.720869 12.402571 11.590977 12.326172 11.503906 C 12.249832 11.416776 12.1875 11.339728 12.1875 11.332031 C 12.1875 11.324331 12.142804 11.270199 12.089844 11.212891 C 12.036884 11.155581 11.980383 11.09211 11.962891 11.072266 C 11.930431 11.035466 11.613018 10.647232 11.580078 10.603516 C 11.570078 10.590286 11.533217 10.547502 11.498047 10.507812 C 11.462947 10.468123 11.390908 10.375494 11.337891 10.302734 C 11.284931 10.229974 11.22963 10.159713 11.214844 10.146484 C 11.200114 10.133254 11.156377 10.075159 11.117188 10.015625 C 11.077938 9.9560941 11.030024 9.8876631 11.009766 9.8652344 C 10.989446 9.8427454 10.93117 9.7673801 10.880859 9.6972656 C 10.652723 9.3790494 10.404936 9.0360839 10.371094 8.9921875 C 10.331121 8.9402936 10.212076 8.7693045 10.095703 8.5957031 C 10.055851 8.5361724 10.003851 8.4636285 9.9804688 8.4355469 C 9.9344851 8.3802855 9.9173942 8.355908 9.8007812 8.1738281 C 9.6848816 7.9929437 9.5645286 7.8973237 9.4492188 7.890625 z " />
</svg>
