<svg viewBox="0 0 128 40"><path class="logo-mark" d="M20 0C9 0 0 9 0 20s9 20 20 20 20-9 20-20S31 0 20 0zM9.3 21.7c-1-.9-1-2.4 0-3.4l9-9c.9-1 2.5-1 3.3-.2l1.5 1.5-9.4 9.4 3.8 3.7-3.1 3.1-5.1-5.1zm21.5.1l-9 9c-.9 1-2.4 1-3.4 0l-1.5-1.5 9.4-9.3-3.7-3.7 3.1-3.1 5.1 5.2c1 .9 1 2.4 0 3.4z"></path><path d="M49.6 23.4c0-1.1.2-2.1.5-3.2.4-.9.9-1.8 1.5-2.5.7-.7 1.4-1.4 2.4-1.7.9-.4 2.1-.6 3.3-.6.8 0 1.5.1 2.2.3s1.4.3 2 .6l-.9 3.4c-.4-.2-.9-.3-1.4-.4s-1-.2-1.6-.2c-1.3 0-2.2.4-2.8 1.2-.6.8-.9 1.8-.9 3.2 0 1.4.3 2.4.9 3.3.6.8 1.5 1.1 3.1 1.1.5 0 1.1-.1 1.6-.2.6-.1 1.2-.3 1.6-.5l.6 3.5c-.5.3-1.1.4-1.9.5-.8.2-1.5.3-2.5.3-1.4 0-2.6-.3-3.5-.6-1-.4-1.8-.9-2.4-1.7-.6-.7-1.1-1.5-1.4-2.5-.2-1.2-.4-2.2-.4-3.3zM77.3 23.4c0 1.2-.2 2.3-.5 3.3s-.9 1.8-1.4 2.5c-.6.7-1.4 1.3-2.4 1.6-.9.4-2 .5-3.1.5s-2.1-.2-3.1-.5c-.9-.4-1.7-.9-2.4-1.6s-1.2-1.5-1.4-2.5c-.4-1-.5-2.1-.5-3.3s.2-2.3.5-3.3.9-1.8 1.5-2.5 1.4-1.3 2.4-1.6c.9-.4 1.9-.5 3-.5s2.1.2 3 .5c.9.3 1.7.9 2.4 1.6.6.7 1.2 1.5 1.4 2.5.5 1 .6 2.1.6 3.3zm-4.3 0c0-1.4-.3-2.4-.8-3.2-.5-.8-1.2-1.2-2.2-1.2-.9 0-1.7.4-2.3 1.2s-.8 1.8-.8 3.2c0 1.4.3 2.4.8 3.2s1.4 1.2 2.3 1.2 1.7-.4 2.3-1.2c.4-.9.7-1.9.7-3.2zM92.9 30.5c-.4.1-.9.3-1.4.3-.5.1-1 .3-1.5.3-.5.1-1.1.2-1.6.2-.5.1-1.1.1-1.6.1-1.3 0-2.4-.2-3.4-.5-.9-.4-1.8-.9-2.5-1.5-.7-.7-1.2-1.4-1.5-2.5-.3-.9-.5-2-.5-3.2 0-1.3.2-2.4.5-3.4s.8-1.8 1.4-2.5c.5-.7 1.3-1.3 2.1-1.5.9-.4 1.8-.5 2.9-.5.6 0 1.1.1 1.5.2.5.1.9.3 1.4.5v-7l4.3-1c-.1 0-.1 22-.1 22zm-9.7-7.2c0 1.4.3 2.4.9 3.3.6.8 1.4 1.2 2.7 1.2.4 0 .7 0 1.1-.1.3 0 .6-.1.8-.1v-7.9c-.3-.2-.6-.3-1-.5-.5-.1-.9-.2-1.4-.2-2.1.1-3.1 1.5-3.1 4.3zM100.2 11.4c0 .8-.3 1.4-.8 1.9s-1.1.7-1.8.7-1.3-.3-1.8-.7c-.5-.5-.8-1.1-.8-1.9s.3-1.4.8-1.9 1.1-.7 1.8-.7 1.3.3 1.8.7c.4.4.8 1.1.8 1.9zM99.7 31h-4.3V15.8h4.3V31zM101.9 23.5c0-1.4.3-2.5.6-3.5.4-1 .9-1.9 1.6-2.5.7-.7 1.4-1.2 2.4-1.5.9-.3 1.8-.5 2.7-.5 2.1 0 3.9.6 5.1 2 1.3 1.4 1.9 3.3 1.9 5.8v.8c0 .3 0 .5-.1.8h-9.8c.1.9.5 1.5 1.3 2.1.7.5 1.7.8 2.9.8.8 0 1.5-.1 2.4-.3.8-.2 1.4-.3 1.9-.5l.5 3.5c-.3.1-.5.3-.9.3-.4.1-.8.3-1.3.3-.5.1-.9.2-1.4.3-.5.1-1.1.1-1.6.1-1.4 0-2.5-.3-3.5-.6-1-.4-1.8-.9-2.5-1.6-.6-.7-1.2-1.5-1.4-2.5-.6-1.2-.8-2.2-.8-3.3zm10.1-1.7c0-.4-.1-.7-.2-1.1-.1-.3-.3-.6-.5-.9-.3-.3-.5-.5-.9-.6-.3-.2-.8-.3-1.3-.3s-.9.1-1.3.3l-.9.6c-.3.3-.4.5-.5.9s-.1.7-.1 1.1h5.7zM127.3 19.5c-.4-.1-.9-.3-1.4-.3-.5-.1-1.1-.2-1.6-.2-.3 0-.6 0-.9.1-.4.1-.6.1-.9.2V31h-4.3V16.6c.8-.3 1.6-.5 2.7-.8 1-.3 2.2-.4 3.5-.4.3 0 .5 0 .9.1.3 0 .6.1.9.1.3.1.6.1.9.2l.9.3-.7 3.4z"></path></svg>
