<svg width="76.8" height="24" xmlns="http://www.w3.org/2000/svg"><path class="logo-mark" d="M12 0C5.4 0 0 5.4 0 12s5.4 12 12 12 12-5.4 12-12S18.6 0 12 0Zm43.8 5.1-2.58.6v4.2c-.3-.12-.54-.24-.84-.3-.24-.06-.54-.12-.9-.12-.66 0-1.2.06-1.74.3-.48.12-.96.48-1.26.9-.36.42-.66.9-.84 1.5-.18.6-.3 1.26-.3 2.04 0 .72.12 1.38.3 1.92.18.66.48 1.08.9 1.5.42.36.96.66 1.5.9.6.18 1.26.3 2.04.3.3 0 .66 0 .96-.06.3 0 .66-.06.96-.12.3 0 .6-.12.9-.18.3 0 .6-.12.84-.18 0 0 0-13.2.06-13.2zm-43.807.015c.367-.015.727.105.967.345l.9.9L8.22 12l2.28 2.22-1.86 1.86-3.06-3.06c-.6-.54-.6-1.44 0-2.04l5.4-5.4c.27-.3.645-.45 1.013-.465zm46.567.165c-.42 0-.78.12-1.08.42-.3.3-.48.66-.48 1.14 0 .48.18.84.48 1.14.3.24.66.42 1.08.42.42 0 .78-.12 1.08-.42.3-.3.48-.66.48-1.14 0-.48-.24-.9-.48-1.14-.3-.24-.66-.42-1.08-.42zM15.42 7.92l3.06 3.12c.6.54.6 1.44 0 2.04l-5.4 5.4c-.54.6-1.44.6-2.04 0l-.9-.9L15.78 12l-2.22-2.22Zm18.96 1.32c-.72 0-1.44.12-1.98.36-.6.18-1.02.6-1.44 1.02-.36.42-.66.96-.9 1.5-.18.66-.3 1.26-.3 1.92 0 .66.12 1.26.24 1.98.18.6.48 1.08.84 1.5.36.48.84.78 1.44 1.02.54.18 1.26.36 2.1.36.6 0 1.02-.06 1.5-.18.48-.06.84-.12 1.14-.3l-.36-2.1c-.24.12-.6.24-.96.3-.3.06-.66.12-.96.12-.96 0-1.5-.18-1.86-.66-.36-.54-.54-1.14-.54-1.98 0-.84.18-1.44.54-1.92.36-.48.9-.72 1.68-.72.36 0 .66.06.96.12.3.06.6.12.84.24l.54-2.04c-.36-.18-.78-.24-1.2-.36-.42-.12-.84-.18-1.32-.18zm40.26 0c-.78 0-1.5.06-2.1.24-.66.18-1.14.3-1.62.48v8.64h2.58v-7.02c.18-.06.3-.06.54-.12.18-.06.36-.06.54-.06.3 0 .66.06.96.12.3 0 .6.12.84.18l.42-2.04-.54-.18c-.18-.06-.36-.06-.54-.12-.18 0-.36-.06-.54-.06-.24-.06-.36-.06-.54-.06zm-32.7.06c-.66 0-1.26.06-1.8.3-.6.18-1.08.54-1.44.96-.36.42-.72.9-.9 1.5-.18.6-.3 1.26-.3 1.98s.06 1.38.3 1.98c.12.6.42 1.08.84 1.5.42.42.9.72 1.44.96.6.18 1.2.3 1.86.3.66 0 1.32-.06 1.86-.3.6-.18 1.08-.54 1.44-.96.3-.42.66-.9.84-1.5.18-.6.3-1.26.3-1.98s-.06-1.38-.36-1.98c-.12-.6-.48-1.08-.84-1.5-.42-.42-.9-.78-1.44-.96-.54-.18-1.14-.3-1.8-.3zm23.58 0c-.54 0-1.08.12-1.62.3-.6.18-1.02.48-1.44.9-.42.36-.72.9-.96 1.5-.18.6-.36 1.26-.36 2.1 0 .66.12 1.26.48 1.98.12.6.48 1.08.84 1.5.42.42.9.72 1.5.96.6.18 1.26.36 2.1.36.3 0 .66 0 .96-.06.3-.06.54-.12.84-.18.3 0 .54-.12.78-.18.24 0 .36-.12.54-.18l-.3-2.1c-.3.12-.66.18-1.14.3-.54.12-.96.18-1.44.18-.72 0-1.32-.18-1.74-.48-.48-.36-.72-.72-.78-1.26h5.88c.06-.18.06-.3.06-.48v-.48c0-1.5-.36-2.64-1.14-3.48-.72-.84-1.8-1.2-3.06-1.2zm-8.28.18v9.12h2.58V9.48Zm8.22 1.86c.3 0 .6.06.78.18.24.06.36.18.54.36.12.18.24.36.3.54.06.24.12.42.12.66h-3.42c0-.24 0-.42.06-.66.06-.24.12-.36.3-.54l.54-.36c.24-.12.48-.18.78-.18zM42 11.4c.6 0 1.02.24 1.32.72.3.48.48 1.08.48 1.92 0 .78-.18 1.38-.42 1.92-.36.48-.84.72-1.38.72-.54 0-1.08-.24-1.38-.72-.3-.48-.48-1.08-.48-1.92 0-.84.12-1.44.48-1.92s.84-.72 1.38-.72Zm9.78 0c.3 0 .54.06.84.12.24.12.42.18.6.3v4.74c-.12 0-.3.06-.48.06-.24.06-.42.06-.66.06-.78 0-1.26-.24-1.62-.72-.36-.54-.54-1.14-.54-1.98 0-1.68.6-2.52 1.86-2.58z" style="stroke-width:.6"/></svg>