
<svg width="41" height="24" viewBox="0 0 41 24" fill="none" xmlns="http://www.w3.org/2000/svg">
<path fill-rule="evenodd" clip-rule="evenodd" d="M6.73523 4.63592H6.03629C5.8139 4.63592 5.62328 4.67573 5.4962 4.79515C5.36912 4.87476 5.27381 5.03398 5.21027 5.1534C5.14673 5.31262 5.11496 5.47184 5.08319 5.63106L5.08319 5.63107C5.05142 5.8301 5.05142 5.98932 5.05142 6.10874V9.69126C5.05142 10.1291 4.98788 10.4874 4.82903 10.766C4.67018 11.0447 4.47956 11.2835 4.2254 11.4427C4.00301 11.6019 3.71708 11.7214 3.46292 11.801C3.17699 11.8806 2.92284 11.9204 2.70045 11.9204V11.9602C2.89782 11.9602 3.12022 11.9915 3.36765 12.0264L3.46292 12.0398C3.74885 12.0796 4.00301 12.199 4.2254 12.3583C4.44779 12.5175 4.67018 12.7563 4.82903 13.0748C4.98788 13.3932 5.05142 13.8311 5.05142 14.3485V17.732C5.05142 17.8913 5.05142 18.0505 5.08319 18.2097C5.11496 18.4087 5.14673 18.568 5.24204 18.6874C5.30558 18.8466 5.43266 18.966 5.59151 19.0456C5.75036 19.1252 5.94098 19.2049 6.22691 19.2049H6.767V23.1456H4.51133C4.19363 23.1456 3.87593 23.066 3.55823 22.9466C3.24053 22.8272 2.92284 22.6282 2.63691 22.3893C2.35098 22.1505 2.12859 21.7922 1.93797 21.3942C1.74735 20.9961 1.68381 20.5184 1.68381 19.9612V15.5029C1.68381 15.1447 1.62027 14.866 1.49319 14.667C1.36611 14.468 1.20726 14.3087 1.01664 14.1893C0.826018 14.0699 0.635399 13.9903 0.444779 13.9505C0.254159 13.9107 0.0953097 13.9107 0 13.9107V10.1291H8.58307e-06C0.127086 10.1291 0.254164 10.1291 0.444779 10.0893C0.635399 10.0495 0.826018 10.0097 0.984869 9.89029C1.17549 9.77087 1.30257 9.65146 1.46142 9.45243C1.62027 9.2534 1.65204 9.01456 1.65204 8.69612V4.03884C1.65204 3.48155 1.74735 3.00388 1.9062 2.60583C2.09682 2.20777 2.31921 1.88932 2.60514 1.61068C2.89107 1.37185 3.17699 1.17282 3.52646 1.0534C3.84416 0.933982 4.16186 0.85437 4.47956 0.85437H6.73523V4.63592ZM34.2647 4.63592H34.9637C35.1861 4.63592 35.3767 4.67573 35.5038 4.79515C35.6309 4.87476 35.7262 5.03398 35.7897 5.1534C35.8532 5.31262 35.885 5.47185 35.9168 5.63107C35.9486 5.8301 35.9486 5.98932 35.9486 6.10874V9.69126C35.9486 10.1291 36.0121 10.4874 36.1709 10.766C36.3298 11.0447 36.5204 11.2835 36.7746 11.4427C36.997 11.6019 37.2829 11.7214 37.5371 11.801C37.823 11.8806 38.0772 11.9204 38.2995 11.9204V11.9602C38.1022 11.9602 37.8798 11.9915 37.6323 12.0264L37.5371 12.0398C37.2511 12.0796 36.997 12.199 36.7746 12.3583C36.5522 12.5175 36.3298 12.7563 36.1709 13.0748C36.0121 13.3932 35.9486 13.8311 35.9486 14.3485V17.732C35.9486 17.8913 35.9486 18.0505 35.9168 18.2097C35.885 18.4087 35.8532 18.568 35.7579 18.6874C35.6944 18.8466 35.5673 18.966 35.4085 19.0456C35.2496 19.1252 35.059 19.2049 34.7731 19.2049H34.233V23.1456H36.4886C36.8064 23.1456 37.124 23.066 37.4417 22.9466C37.7595 22.8272 38.0772 22.6282 38.3631 22.3893C38.649 22.1505 38.8714 21.7922 39.062 21.3942C39.2526 20.9961 39.3162 20.5184 39.3162 19.9612V15.5029C39.3162 15.1447 39.3797 14.866 39.5068 14.667C39.6339 14.468 39.7927 14.3087 39.9834 14.1893C40.174 14.0699 40.3646 13.9903 40.5552 13.9505C40.7458 13.9107 40.9047 13.9107 41 13.9107V10.1291C40.8729 10.1291 40.7458 10.1291 40.5552 10.0893C40.3646 10.0495 40.174 10.0097 40.0151 9.89029C39.8245 9.77087 39.6974 9.65146 39.5386 9.45243C39.3797 9.2534 39.348 9.01456 39.348 8.69612V4.03884C39.348 3.48155 39.2526 3.00388 39.0938 2.60583C38.9032 2.20777 38.6808 1.88932 38.3949 1.61068C38.1089 1.37185 37.823 1.17282 37.4735 1.0534C37.1558 0.933982 36.8381 0.85437 36.5204 0.85437H34.2647V4.63592ZM27.237 14.9298L14.0944 1.65048H10.9689V4.8085L24.1115 18.0878L21.7701 20.4535L23.3274 22.0269L26.0221 19.2706L29.5784 22.8081C30.0091 23.2433 30.7049 23.2433 31.1356 22.8081L31.9197 22.0158C32.3504 21.5806 32.3504 20.8776 31.9197 20.4423L28.4077 16.8938L31.1356 14.1375L29.5784 12.564L27.237 14.9298ZM30.0312 4.79734L24.7962 10.0867L21.6707 6.93988L26.9057 1.65048H30.0312V4.79734ZM16.2039 12.4636L19.3294 15.6663L16.8886 18.0878L19.23 20.4535L17.6727 22.0269L14.978 19.2706L11.4217 22.8192C10.991 23.2544 10.2952 23.2544 9.8645 22.8192L9.08037 22.0269C8.64964 21.5917 8.64964 20.8887 9.08037 20.4535L12.5924 16.8938L9.8645 14.1375L11.4217 12.564L13.7631 14.9298L16.2039 12.4636Z" fill="#FFDF00"/>
</svg>
