<svg width="74" height="21" fill="none" xmlns="http://www.w3.org/2000/svg"><path d="M1.479 8.128h7.085v1.99l-2.664.205C1.595 10.646.249 11.785.249 14.98v.645c0 2.338 1.64 3.748 4.157 3.748 1.992 0 3.133-.47 4.54-1.904h.233v1.523h2.84V5.024H1.479v3.104Zm7.085 6.735c-.877.876-2.196 1.461-3.279 1.461-1.17 0-1.669-.44-1.64-1.406.03-1.346.527-1.669 2.782-1.873l2.137-.205v2.023Z" fill="#F80"/><path fill-rule="evenodd" clip-rule="evenodd" d="M17.99 5.025h5.476v2.84h2.986V18.99h-3.484V8.158h-4.977V18.99h-3.485V.837h3.485v4.188Zm50.95 5.621-2.108-.206c-1.17-.117-1.462-.409-1.462-1.346 0-1.054.41-1.318 2.046-1.318 1.462 0 1.874.235 2.08 1.23h3.279c-.088-3.337-1.113-4.189-5.184-4.189-4.45 0-5.563.85-5.563 4.275 0 3.133.82 3.982 4.13 4.304l1.727.176c1.552.146 1.932.44 1.932 1.376 0 1.142-.469 1.434-2.372 1.434-1.669 0-2.108-.263-2.196-1.346h-3.312c.088 3.455 1.142 4.333 5.358 4.333 4.685 0 5.856-.937 5.856-4.743.005-2.838-.844-3.659-4.211-3.98Zm-17.938.263c0-4.509-1.55-6.09-6.002-6.09-4.392 0-6.12 2.046-6.12 7.144 0 5.564 1.523 7.405 6.442 7.405 3.544 0 5.036-1.084 5.534-4.13H47.49c-.38.942-.79 1.146-2.22 1.146-2.167 0-2.723-.614-2.84-3.22h8.344c.14-.744.217-1.498.23-2.255Zm-8.549-.498c.03-1.961.82-2.693 2.694-2.693 1.786 0 2.517.732 2.577 2.693h-5.27Zm10.578-4.773V18.99h3.485V8.01h4.189V5.025h-4.19v-.38c.029-.82.234-1.055.908-1.055h3.806V.837h-4.1c-2.781 0-4.098.849-4.098 4.801ZM32.49 18.99h-3.484V5.026h8.667v3.279h-5.183V18.99Z" fill="#fff"/></svg>