<svg class="svg-icon" aria-hidden="true" role="img" focusable="false" fill="none" height="48" viewBox="0 0 104 48" width="104" xmlns="http://www.w3.org/2000/svg"><g fill="#000"><path clip-rule="evenodd" d="m24 48c-13.2548 0-24-10.7452-24-24s10.7452-24 24-24 24 10.7452 24 24v24zm0-8c-8.8366 0-16-7.1634-16-16s7.1634-16 16-16c8.8365 0 16 7.1634 16 16v16z" fill-rule="evenodd"></path><path d="m23.9999 32c4.4183 0 8-3.5817 8-8s-3.5817-8-8-8-8 3.5817-8 8 3.5817 8 8 8z"></path><path clip-rule="evenodd" d="m104 24c0-13.2548-10.7448-24-24-24h-24v24c0 13.2548 10.7452 24 24 24h24zm-8 0c0-8.8366-7.1632-16-16-16h-16v16c0 8.8366 7.1634 16 16 16h16z" fill-rule="evenodd"></path><path d="m80 32c4.4183 0 8-3.5817 8-8s-3.5817-8-8-8-8 3.5817-8 8 3.5817 8 8 8z"></path></g></svg>
