<svg width="785" height="242" xmlns="http://www.w3.org/2000/svg" xmlns:xlink="http://www.w3.org/1999/xlink"><defs><path id="a" d="m3.39 14.855 854.118-.014-.004 208.91-854.118.015z"/></defs><g fill="none" fill-rule="evenodd"><g transform="translate(111 -30)"><mask id="b" fill="#fff"><use xlink:href="#a"/></mask><path d="M303.28 555h-.023a264.097 264.097 0 0 1-62.48-7.53c-68.247-16.592-125.924-58.716-162.422-118.612-36.482-59.889-47.408-130.405-30.76-198.508C76.41 112.392 181.37 30 302.854 30c20.94 0 41.95 2.528 62.488 7.53 140.803 34.286 227.473 176.559 193.152 317.136C529.672 472.616 424.711 555 303.28 555Zm-.432-500.447c-110.096 0-205.26 74.678-231.388 181.623-15.087 61.73-5.165 125.626 27.905 179.935 33.093 54.293 85.365 92.472 147.219 107.515 18.631 4.532 37.702 6.836 56.665 6.836 110.104.008 205.213-74.662 231.365-181.6 31.093-127.429-47.47-256.4-175.1-287.473-18.632-4.539-37.695-6.836-56.666-6.836Z" fill="#FFF" fill-rule="nonzero" mask="url(#b)"/><path d="m441.226 511-24.425-2.088C442.08 213.592 172.725 91.673 170 90.479L179.86 68c2.88 1.272 288.147 130.387 261.366 443Z" fill="#FFF" fill-rule="nonzero" mask="url(#b)"/><path d="M66.998 265 45 254.03c28.476-57.382 89.28-53.793 148.109-50.304 45.748 2.739 91.743 7.48 125.887-17.018 72.71-52.17 26.075-128.976 23.975-132.14L363.486 41c22.16 33.611 44.683 111.091-28.723 163.763-41.231 29.58-95.334 26.378-143.098 23.562-55.531-3.334-103.387-6.103-124.667 36.675ZM99.007 437 86 416.202 508.985 151 522 171.79z" fill="#FFF" fill-rule="nonzero" mask="url(#b)"/></g><g fill="#FFC600" fill-rule="nonzero"><path d="m727.402 93.01 29.988-.508-36.337 37.279 29.192 3.367s-72.955 54.432-72.962 54.455l32.581-41.646-20.343-2.317c.023.008 37.881-50.63 37.881-50.63ZM767.714 151.463l16.79 2.9-27.153 19.145 15.627 5.21s-50.723 25.82-50.732 25.834l25.872-22.246-10.895-3.613c.012.007 30.491-27.23 30.491-27.23ZM676.67 57.49l16.09-5.602-14.467 29.908 16.194-3.019s-31.846 47.174-31.847 47.19l11.843-32-11.28 2.122c.013.001 13.466-38.598 13.466-38.598ZM47.058 125.736l-29.827 3.15 40.61 32.572-28.564 6.9s79.044 45.135 79.055 45.157l-37.414-37.364 19.909-4.78c-.022.01-43.77-45.635-43.77-45.635ZM14.647 202.778.367 213.063l33.777 9.397-12.166 12.315s58.64 6.695 58.654 6.706l-33.978-13.327 8.491-8.565c-.007.013-40.498-16.811-40.498-16.811ZM104.65 93.683l-22.64-1.796 25.33 29.347-22.26 1.113s52.026 43.792 52.031 43.81l-22.24-32.406 15.51-.754c-.018.005-25.732-39.314-25.732-39.314Z"/></g></g></svg>