
<svg height="37.501" viewBox="0 0 274.468 37.501" width="274.468" xmlns="http://www.w3.org/2000/svg"><g fill="#fff"><path d="m177.97 13.309-3.295 3.291c-1.334-1.334-2.51-2.04-3.609-2.04a2.329 2.329 0 0 0 -1.412.392 1.118 1.118 0 0 0 -.471.941 1.007 1.007 0 0 0 .314.784 10.83 10.83 0 0 0 1.569 1.02l1.961.941a12.266 12.266 0 0 1 4.236 3.06 5.921 5.921 0 0 1 1.177 3.687 6.037 6.037 0 0 1 -2.118 4.707 7.982 7.982 0 0 1 -5.57 1.883 8.966 8.966 0 0 1 -7.453-3.609l3.295-3.609a8.193 8.193 0 0 0 2.2 1.8 4.731 4.731 0 0 0 2.275.706 2.983 2.983 0 0 0 1.726-.471 1.3 1.3 0 0 0 .628-1.177c0-.784-.785-1.647-2.353-2.432l-1.8-.863c-3.452-1.726-5.178-3.922-5.178-6.511a5.577 5.577 0 0 1 1.961-4.315 7.23 7.23 0 0 1 4.942-1.8 8.506 8.506 0 0 1 3.922.941 9.08 9.08 0 0 1 3.06 2.667z" transform="translate(-29.535 -2.09)"/><path d="m147.5 10.349h4.628v2.667a6.119 6.119 0 0 1 1.961-2.432 4.619 4.619 0 0 1 2.667-.784 4.78 4.78 0 0 1 2.2.549l-1.647 4.628a3.508 3.508 0 0 0 -1.569-.471 2.363 2.363 0 0 0 -2.04 1.494c-.549 1.02-.863 2.981-.863 5.962v9.568h-5.337z" transform="translate(-26.129 -2.112)"/><path d="m137.458 22.43h-17.1a5.866 5.866 0 0 0 1.961 3.609 6.371 6.371 0 0 0 4.079 1.334 6.993 6.993 0 0 0 5.1-2.118l4.472 2.118a10.712 10.712 0 0 1 -4 3.53 12.166 12.166 0 0 1 -5.57 1.177 11.057 11.057 0 0 1 -8.159-3.138 10.584 10.584 0 0 1 -3.141-7.842 11 11 0 0 1 3.138-8.08 10.65 10.65 0 0 1 7.845-3.22 10.991 10.991 0 0 1 8.159 3.216 11.427 11.427 0 0 1 3.138 8.472l.078.941zm-5.335-4.158a5.061 5.061 0 0 0 -2.118-2.824 6.327 6.327 0 0 0 -3.609-1.1 6.18 6.18 0 0 0 -3.922 1.255 6.9 6.9 0 0 0 -1.961 2.667z" transform="translate(-19.147 -2.112)"/><path d="m105.4 0h5.335v29.5h-5.335z" transform="translate(-17.056)"/><path d="m43.228 6.327-3.844 3.608c-2.667-2.745-5.57-4.157-8.784-4.157a9.526 9.526 0 0 0 -6.984 2.822 9.349 9.349 0 0 0 -2.824 6.9 10.035 10.035 0 0 0 1.255 5.1 9.527 9.527 0 0 0 3.53 3.53 10.035 10.035 0 0 0 5.1 1.255 11.541 11.541 0 0 0 4.393-.863 15.222 15.222 0 0 0 4.315-3.216l3.687 3.922a20.754 20.754 0 0 1 -6.041 4.315 16.911 16.911 0 0 1 -6.511 1.177 14.9 14.9 0 0 1 -10.983-4.236 14.719 14.719 0 0 1 -4.236-10.9 14.285 14.285 0 0 1 1.961-7.61 14.592 14.592 0 0 1 5.57-5.335 16.227 16.227 0 0 1 14.668-.548 15.813 15.813 0 0 1 5.727 4.236z" transform="translate(2.361 -.129)"/><path d="m62.418 9.5a11.218 11.218 0 1 1 -11.218 11.218 11.216 11.216 0 0 1 11.218-11.218zm0 5.1a6.119 6.119 0 1 1 -6.118 6.118 6.127 6.127 0 0 1 6.118-6.118z" fill-rule="evenodd" transform="translate(-5.376 -2.047)"/><path d="m94.418 9.5a11.218 11.218 0 1 1 -11.218 11.218 11.216 11.216 0 0 1 11.218-11.218zm0 5.1a6.119 6.119 0 1 1 -6.118 6.118 6.127 6.127 0 0 1 6.118-6.118z" fill-rule="evenodd" transform="translate(-12.272 -2.047)"/><path d="m100.688 41.8h5.256v18.2c0 3.609-.706 6.2-2.2 7.923-1.961 2.275-4.864 3.452-8.786 3.452a14.555 14.555 0 0 1 -5.256-.784 10.1 10.1 0 0 1 -3.602-2.275 8.745 8.745 0 0 1 -2.2-3.687h5.884a4.636 4.636 0 0 0 2.04 1.334 8.04 8.04 0 0 0 2.9.471 8.481 8.481 0 0 0 3.452-.628 4.5 4.5 0 0 0 1.883-1.726c.471-.785.628-16.082.628-22.279z" transform="translate(149.204 -33.874)"/><path d="m54 41.649h5.335v2.2a11.533 11.533 0 0 1 3.295-2.118 9.024 9.024 0 0 1 3.216-.628 8.118 8.118 0 0 1 5.805 2.2 7.6 7.6 0 0 1 1.883 5.57v14.036h-5.256v-9.336a23.1 23.1 0 0 0 -.314-5.021 3.265 3.265 0 0 0 -1.177-1.883 4.437 4.437 0 0 0 -2.51-.628 4.508 4.508 0 0 0 -2.981 1.1 5.817 5.817 0 0 0 -1.647 2.981 24.5 24.5 0 0 0 -.235 4.315v8.551h-5.414z" transform="translate(155.647 -33.723)"/><path d="m42.1 41.8h5.335v21.26h-5.335z" transform="translate(158.212 -33.874)"/><path d="m0 32.2h5.648v23.378h8.08v5.413h-13.728z" transform="translate(167.285 -31.805)"/><g fill-rule="evenodd"><path d="m94.418 41.3a11.218 11.218 0 1 1 -11.218 11.218 11.216 11.216 0 0 1 11.218-11.218zm0 5.1a6.119 6.119 0 1 1 -6.118 6.118 6.127 6.127 0 0 1 6.118-6.118z" transform="translate(149.355 -33.766)"/><path d="m30.918 41.3a11.179 11.179 0 1 1 -11.218 11.14 11.216 11.216 0 0 1 11.218-11.14zm0 5.1a6.119 6.119 0 1 1 -6.118 6.118 6.127 6.127 0 0 1 6.118-6.118z" transform="translate(163.039 -33.766)"/></g></g><g fill="#3acce1"><path d="m-18.85-5.538-13.618-7.223v-2.767l13.618-8.14v4.778l-8.35 4.553 8.352 4.054z" transform="translate(32.468 31.236)"/><path d="m9.932-28.965-7.341 24.179h-4.661l7.341-24.179z" transform="translate(153.101 34.188)"/><path d="m25.089-10.283 8.352-4.054-8.352-4.553v-4.778l13.618 8.14v2.767l-13.618 7.223z" transform="translate(235.761 31.236)"/></g></svg>