<svg width="44" height="44" fill="none" xmlns="http://www.w3.org/2000/svg"><path d="M44 22c0 12.1-9.9 22-22 22S0 34.1 0 22 9.9 0 22 0s22 9.9 22 22Z" fill="#000"/><path d="M14 12h10c5.523 0 10 4.477 10 10s-4.477 10-10 10H14V12Z" stroke="url(#a)" stroke-width="1.111"/><path d="M30.358 14.335c-1.708-1.402-3.703-2.311-6.082-2.335l-10.03 10 10.03 10c2.38-.024 4.374-.959 6.082-2.36-.041-.042-2.72-2.628-3.691-3.595-.97-.968-3.39-3.32-4.117-4.045l7.808-7.665Z" stroke="url(#b)" stroke-width="1.111"/><defs><linearGradient id="a" x1="14" y1="12" x2="14" y2="32" gradientUnits="userSpaceOnUse"><stop stop-color="#9EE1EC"/><stop offset="1" stop-color="#E5A7E0"/></linearGradient><linearGradient id="b" x1="14.247" y1="12" x2="14.247" y2="32" gradientUnits="userSpaceOnUse"><stop stop-color="#9EE1EC"/><stop offset="1" stop-color="#E5A7E0"/></linearGradient></defs></svg>