<svg xmlns="http://www.w3.org/2000/svg" width="227" height="48"><defs><linearGradient id="a" x1="50%" x2="50%" y1="0%" y2="100%"><stop offset="0%" stop-color="#FF9F2F"/><stop offset="100%" stop-color="#FF6026"/></linearGradient></defs><g fill="none" fill-rule="evenodd"><path fill="#FFF" d="M78.745 17.176H76v13.53h8.432v-2.313h-5.687V17.176Zm7.344 0v13.53h8.432v-2.313h-5.687v-3.53h5.099V22.55h-5.099v-3.04h5.687v-2.333h-8.432Zm12.07 13.53.824-2.568h4.53l.823 2.569h2.921l-4.706-13.53h-2.627l-4.706 13.53h2.94Zm3.079-9.647 1.529 4.765h-3.059l1.53-4.765Zm17.893 9.648-2.804-5.765c1.47-.608 2.314-1.804 2.314-3.628 0-2.745-1.941-4.138-5.06-4.138h-4.843v13.53h2.746v-5.313h2.196l2.431 5.314h3.02Zm-7.647-7.628v-3.57h1.843c1.627 0 2.569.393 2.569 1.805s-.942 1.765-2.57 1.765h-1.842Zm17.128-5.903v8.491l-5.294-8.49h-2.275v13.53h2.608v-8.373l5.275 8.373h2.294v-13.53h-2.608Zm18.257 0v8.06c0 2.314-.765 3.333-2.45 3.333-1.687 0-2.452-1.02-2.452-3.333v-8.06h-2.745v8.06c0 3.98 2.196 5.647 5.196 5.647 3 0 5.196-1.667 5.196-5.667v-8.04h-2.745Zm8.56 0h-2.745v13.53h2.745v-13.53Zm12.982 13.53c3.059 0 5.196-1.588 5.196-5.882v-1.765c0-4.314-2.137-5.883-5.196-5.883h-4.804v13.53h4.804Zm0-2.313h-2.059V19.51h2.059c1.824 0 2.451 1.216 2.451 3.55v1.764c0 2.333-.627 3.569-2.451 3.569Zm7.658-11.217v13.53h8.431v-2.313h-5.686v-3.53h5.098V22.55h-5.098v-3.04h5.686v-2.333h-8.431Zm19.638 2.04c-.96-1.49-2.588-2.216-4.745-2.216-3.216 0-4.628 1.667-4.628 3.804 0 2.235 1.334 3.51 4 4.216 2.197.569 2.765 1.098 2.765 2.04 0 .823-.529 1.51-2.098 1.51-1.392 0-2.216-.452-2.941-1.354l-2.098 1.451c1.196 1.569 2.843 2.216 5.216 2.216 3.176 0 4.667-1.726 4.667-3.941 0-2.393-1.275-3.451-4.099-4.157-1.804-.451-2.666-.922-2.666-1.98 0-.923.666-1.491 1.902-1.491 1.372 0 2.078.45 2.666 1.372l2.06-1.47Zm5.325-2.04h-2.746v13.53h2.746v-13.53Zm7.893 6.491v2.314h2.274c-.157 1.627-.784 2.588-2.333 2.588-1.588 0-2.432-1.078-2.432-3.667v-1.921c0-2.589.844-3.667 2.432-3.667 1.372 0 2.098.823 2.333 2.059h2.628c-.412-2.765-2.118-4.373-4.961-4.373-3.04 0-5.177 1.804-5.177 6.177v1.725c0 4.138 2.138 5.981 5.177 5.981 3.059 0 4.98-1.843 4.98-5.98v-1.236h-4.921Zm14.952-6.49v8.49l-5.294-8.49h-2.275v13.53h2.608v-8.373l5.275 8.373h2.294v-13.53h-2.608Z"/><path fill="#4B4B4B" d="M48.003 0C55.288 5.474 60 14.186 60 24s-4.712 18.527-11.998 24H11.998C4.712 42.528 0 33.815 0 24S4.712 5.474 11.997 0Z"/><path fill="url(#a)" d="M24 14.993A.994.994 0 0 1 25 14h3a1 1 0 0 1 1 .999V27h10.004c.55 0 .996.444.996 1v3c0 .552-.445 1-1 1H27.01C25.346 32 24 30.647 24 29.007V14.993Z"/><path fill="#232323" opacity=".3" d="M29 27h3v5h-3z"/></g></svg>