<svg xmlns="http://www.w3.org/2000/svg" viewBox="0 0 52 52"><path fill="#E5F0F9" d="M50 6.955v38.098c0 .698-.577 1.275-1.275 1.275H3.275A1.283 1.283 0 0 1 2 45.053V6.955c0-.711.577-1.275 1.275-1.275h45.45c.698 0 1.275.564 1.275 1.275z"/><path d="M50.002 6.96v38.09c0 .7-.58 1.28-1.28 1.28H3.272c-.69 0-1.27-.58-1.27-1.28v-3.72h26.43c9.2 0 16.74-7.53 16.74-16.73V5.68h3.55c.7 0 1.28.56 1.28 1.28z" opacity=".04"/><path fill="#3E5176" d="M49.996 15.687V6.951c0-.701-.574-1.275-1.274-1.275H3.279c-.701 0-1.275.574-1.275 1.274v8.737h47.992z"/><path fill="#293C66" d="M48.721 4.676H3.28A2.277 2.277 0 0 0 1.004 6.95v38.1a2.277 2.277 0 0 0 2.275 2.274H48.72a2.277 2.277 0 0 0 2.275-2.274V6.95a2.277 2.277 0 0 0-2.275-2.274zM3.004 6.95c0-.148.126-.274.275-.274H48.72c.149 0 .275.126.275.274v7.737H3.004V6.95zm45.717 38.374H3.28a.278.278 0 0 1-.275-.274V16.687h45.992V45.05a.278.278 0 0 1-.275.274z"/><path fill="#FFF" d="M16.707 10.682c0 .824-.675 1.5-1.5 1.5-.84 0-1.5-.676-1.5-1.5 0-.825.66-1.5 1.5-1.5.825 0 1.5.675 1.5 1.5zm-8.409 0c0 .824-.675 1.5-1.5 1.5-.824 0-1.5-.676-1.5-1.5 0-.825.676-1.5 1.5-1.5.825 0 1.5.675 1.5 1.5z"/><path fill="#E1E1E1" d="M8.298 10.682a1.504 1.504 0 0 1-2.75.84c.23.16.52.25.83.25.82 0 1.5-.68 1.5-1.5 0-.31-.09-.59-.25-.83.4.27.67.73.67 1.24z"/><path fill="#FFF" d="M12.503 10.682c0 .824-.675 1.5-1.5 1.5s-1.5-.676-1.5-1.5c0-.825.675-1.5 1.5-1.5s1.5.675 1.5 1.5z"/><path fill="#E1E1E1" d="M12.503 10.682a1.504 1.504 0 0 1-2.75.84c.23.16.52.25.83.25.82 0 1.5-.68 1.5-1.5 0-.31-.09-.59-.25-.83.4.27.67.73.67 1.24zM16.712 10.677a1.504 1.504 0 0 1-2.75.84c.23.16.52.25.83.25.82 0 1.5-.68 1.5-1.5 0-.31-.09-.59-.25-.83.4.27.67.73.67 1.24z"/><path fill="#FFF" d="M46.706 9.627v2.11c0 .25-.2.44-.45.44H20.172c-.24 0-.44-.19-.44-.44v-2.11c0-.25.2-.45.44-.45h26.086c.25 0 .45.2.45.45z"/><path fill="#E1E1E1" d="M46.706 9.627v2.11c0 .25-.2.44-.45.44H20.172c-.24 0-.44-.19-.44-.44v-.14h23.876a2.55 2.55 0 0 0 2.55-2.42h.1c.25 0 .45.2.45.45z"/><path fill="#ff7ca6" d="M34.448 22.883v4.916l4.983 3.43-4.983 3.426v4.916l9.703-6.673v-3.337z"/><path d="M44.153 29.564v3.335l-9.704 6.67v-2.344l5.237-3.605a6.338 6.338 0 0 0 2.755-5.228l1.712 1.172z" opacity=".05"/><path fill="#ff7ca6" d="M17.554 22.883v4.916l-4.983 3.43 4.983 3.426v4.916l-9.703-6.673v-3.337z"/><path opacity=".05" d="M17.553 37.105v2.464l-9.704-6.67v-2.464z"/><path fill="#ff7ca6" d="m31.702 42.379-7.157-22.747H20.3l7.157 22.747z"/><path opacity=".05" d="M31.704 42.383h-1.942l-7.161-22.754h1.943z"/><path fill="#293C66" d="M34.448 40.321a.749.749 0 0 1-.75-.75v-4.915c0-.248.12-.479.325-.619l4.085-2.809-4.085-2.811a.747.747 0 0 1-.325-.618v-4.916a.75.75 0 0 1 1.175-.618l9.703 6.679c.204.14.325.37.325.617v3.337a.749.749 0 0 1-.325.618l-9.703 6.673a.749.749 0 0 1-.425.132zm.75-5.27v3.094l8.203-5.642v-2.548l-8.203-5.645v3.095l4.658 3.206a.748.748 0 0 1 0 1.236l-4.658 3.203zM17.554 40.321a.748.748 0 0 1-.425-.132l-9.703-6.673a.749.749 0 0 1-.325-.618V29.56c0-.247.121-.478.325-.617l9.703-6.679a.748.748 0 0 1 1.175.618V27.8a.748.748 0 0 1-.325.618l-4.084 2.811 4.084 2.81c.204.14.325.37.325.618v4.915a.749.749 0 0 1-.75.75zm-8.953-7.818 8.203 5.642V35.05l-4.657-3.203a.749.749 0 0 1 0-1.236l4.657-3.206V24.31l-8.203 5.645v2.548zM31.703 43.13h-4.245a.751.751 0 0 1-.716-.526l-7.158-22.747a.75.75 0 0 1 .716-.975h4.245c.328 0 .618.212.716.525l7.157 22.747a.75.75 0 0 1-.715.975zm-3.696-1.5h2.673l-6.684-21.248h-2.673l6.684 21.247z"/></svg>