<svg width="91" height="32" fill="none" xmlns="http://www.w3.org/2000/svg"><path fill-rule="evenodd" clip-rule="evenodd" d="M44.17 22.574c.543 0 1.053-.087 1.528-.26a5.105 5.105 0 0 0 1.4-.797v.835h3.224V11.858h-3.225v6.971c-.753.593-1.488.89-2.205.89-.605 0-1.034-.133-1.288-.399-.253-.265-.38-.652-.38-1.159v-6.303H40v6.303c0 1.533.346 2.652 1.038 3.356.692.705 1.736 1.057 3.132 1.057Zm11.707-.222 1.631-2.837 1.705 2.837h3.762l-3.521-5.321 3.354-5.173h-3.725l-1.52 2.54-1.5-2.54H52.3l3.243 5.024-3.428 5.47h3.761Zm13.58.315c1.371 0 2.625-.34 3.762-1.02l-.908-2.67a5.737 5.737 0 0 1-1.288.63 4.102 4.102 0 0 1-1.288.205c-.79 0-1.365-.235-1.724-.705-.358-.47-.537-1.15-.537-2.04 0-.864.185-1.52.556-1.965.37-.444.97-.673 1.797-.686.495 0 .942.044 1.344.13.402.087.83.241 1.288.464v-2.93a6.483 6.483 0 0 0-1.39-.408 9.99 9.99 0 0 0-1.612-.11c-1.73.012-3.052.497-3.966 1.455-.914.958-1.371 2.314-1.371 4.07 0 1.767.457 3.136 1.371 4.106.914.97 2.236 1.461 3.966 1.474Zm10.652 0c.877 0 1.63-.071 2.26-.214a7.155 7.155 0 0 0 1.909-.75l-.834-2.485c-.568.285-1.072.485-1.51.603a5.318 5.318 0 0 1-1.38.176c-.829 0-1.456-.167-1.882-.5-.426-.334-.707-.798-.843-1.391h6.634v-1.28c0-1.717-.438-3.024-1.315-3.92-.877-.897-2.088-1.345-3.632-1.345-.964 0-1.835.213-2.614.64-.778.426-1.395 1.057-1.853 1.891-.457.834-.685 1.832-.685 2.994 0 1.113.222 2.09.667 2.93a4.663 4.663 0 0 0 1.955 1.956c.858.463 1.9.695 3.123.695Zm-2.261-6.953c.11-.544.305-.927.583-1.15.278-.222.64-.333 1.085-.333.481 0 .849.117 1.102.352.253.235.405.612.454 1.131h-3.224Zm11.819 6.953v-16h-3.225v15.972l3.225.028Z" fill="#05060F"/><circle cx="16" cy="16" r="16" fill="#05060F"/><path fill-rule="evenodd" clip-rule="evenodd" d="m8 11.243 6.667 3.042V23.5L8 20.458v-2.94l4 1.824V16.01l-4-1.826v-2.94Zm16 0v2.94l-4 1.826v3.333l4-1.825v2.94L17.333 23.5v-9.215L24 11.243ZM15.998 7.5l5.73 2.627-2.825 1.28-2.9-1.33-2.893 1.338-2.816-1.275 5.704-2.64Z" fill="#fff"/></svg>