<svg version="1.0" width="142.667" height="142.667" viewBox="0 0 107 107" xmlns="http://www.w3.org/2000/svg"><g transform="matrix(.25165 0 0 .25165 128.638 9.142)"><rect style="fill:#fdc500;fill-opacity:1;stroke-width:80.8054;stroke-linecap:square;paint-order:stroke fill markers" width="425.196" height="425.196" x="-511.181" y="-36.328" ry="212.598"/><path style="fill:#104911;fill-opacity:1;stroke-width:6.82834;stroke-linecap:square;paint-order:stroke fill markers" d="M-298.583 34.537a141.732 141.732 0 0 0-141.732 141.732v99.214c0 23.555 18.962 42.518 42.518 42.518s42.519-18.963 42.519-42.518V318h.005V176.269a56.693 56.693 0 0 1 56.692-56.692 56.693 56.693 0 0 1 56.692 56.692v99.214c0 23.555 18.964 42.518 42.52 42.518h.002c23.556 0 42.518-18.963 42.518-42.518v-99.214A141.732 141.732 0 0 0-298.583 34.537Zm0 155.907c-23.556 0-42.52 18.964-42.52 42.52 0 23.556 18.964 42.519 42.52 42.519 23.556 0 42.52-18.963 42.52-42.519 0-23.556-18.964-42.52-42.52-42.52z"/></g></svg>