<?xml version="1.0" encoding="UTF-8" standalone="no"?>
<svg
   version="1.0"
   width="142.66701"
   height="142.66701"
   viewBox="0 0 107 107"
   id="svg6"
   sodipodi:docname="safari-pinned-tab.svg"
   inkscape:version="1.1.2 (1:1.1+202202050950+0a00cf5339)"
   xmlns:inkscape="http://www.inkscape.org/namespaces/inkscape"
   xmlns:sodipodi="http://sodipodi.sourceforge.net/DTD/sodipodi-0.dtd"
   xmlns="http://www.w3.org/2000/svg"
   xmlns:svg="http://www.w3.org/2000/svg">
  <defs
     id="defs10" />
  <sodipodi:namedview
     id="namedview8"
     pagecolor="#ffffff"
     bordercolor="#999999"
     borderopacity="1"
     inkscape:pageshadow="0"
     inkscape:pageopacity="0"
     inkscape:pagecheckerboard="0"
     showgrid="false"
     units="px"
     inkscape:zoom="2.3691325"
     inkscape:cx="144.98978"
     inkscape:cy="115.23205"
     inkscape:window-width="1366"
     inkscape:window-height="736"
     inkscape:window-x="0"
     inkscape:window-y="0"
     inkscape:window-maximized="1"
     inkscape:current-layer="svg6" />
  <g
     id="g25"
     transform="matrix(0.25164876,0,0,0.25164876,128.63794,9.1419689)">
    <rect
       style="fill:#fdc500;fill-opacity:1;stroke-width:80.8054;stroke-linecap:square;paint-order:stroke fill markers"
       id="rect52"
       width="425.19583"
       height="425.19583"
       x="-511.18051"
       y="-36.328289"
       ry="212.59792" />
    <path
       id="path1936"
       style="fill:#104911;fill-opacity:1;stroke-width:6.82834;stroke-linecap:square;paint-order:stroke fill markers"
       d="M -298.58327,34.536891 A 141.73194,141.73194 0 0 0 -440.31535,176.26897 v 99.21363 c 0,23.55584 18.9626,42.51845 42.51845,42.51845 23.55585,0 42.51846,-18.96261 42.51846,-42.51845 v 42.51845 h 0.005 V 306.06114 176.26897 a 56.692772,56.692772 0 0 1 56.69224,-56.69225 56.692772,56.692772 0 0 1 56.69224,56.69225 v 99.21363 c 0,23.55584 18.96408,42.51845 42.51992,42.51845 h 0.002 c 23.55586,0 42.51845,-18.96261 42.51845,-42.51845 V 176.26897 A 141.73194,141.73194 0 0 0 -298.58327,34.536891 Z m 0,155.907339 c -23.55585,0 -42.51992,18.96407 -42.51992,42.51992 0,23.55585 18.96407,42.51845 42.51992,42.51845 23.55585,0 42.51992,-18.9626 42.51992,-42.51845 0,-23.55585 -18.96407,-42.51992 -42.51992,-42.51992 z" />
  </g>
</svg>
