<svg viewBox="344.564 330.278 111.737 91.218" width="53.87" height="43.61" xmlns="http://www.w3.org/2000/svg"><path style="fill:#104911;fill-opacity:1;stroke-width:.580147;stroke-linecap:square;paint-order:stroke fill markers" d="M364.307 363.845a12.042 12.042 0 0 0-12.042 12.042v8.43a3.604 3.604 0 0 0 3.613 3.612 3.604 3.604 0 0 0 3.612-3.612v3.612-12.042a4.817 4.817 0 0 1 4.817-4.816 4.817 4.817 0 0 1 4.816 4.816v8.43a3.605 3.605 0 0 0 3.613 3.612 3.604 3.604 0 0 0 3.612-3.612 3.605 3.605 0 0 0 3.613 3.612 3.604 3.604 0 0 0 3.613-3.612v-8.43a4.817 4.817 0 0 1 4.816-4.816 4.817 4.817 0 0 1 4.817 4.816v12.042-3.612a3.604 3.604 0 0 0 3.613 3.612 3.604 3.604 0 0 0 3.612-3.612v-8.43a12.042 12.042 0 0 0-12.042-12.042 12.042 12.042 0 0 0-12.042 12.042 12.042 12.042 0 0 0-12.041-12.042zm36.125 12.042a12.042 12.042 0 0 0 12.042 12.042 12.042 12.042 0 0 0 12.042-12.042 12.042 12.042 0 0 0 12.042 12.042 12.042 12.042 0 0 0 12.042-12.042v-8.43a3.604 3.604 0 0 0-3.613-3.612 3.604 3.604 0 0 0-3.612 3.613v-3.613 12.042a4.817 4.817 0 0 1-4.817 4.817 4.817 4.817 0 0 1-4.817-4.817v-8.43a3.604 3.604 0 0 0-3.612-3.612 3.605 3.605 0 0 0-3.613 3.613 3.604 3.604 0 0 0-3.612-3.613 3.605 3.605 0 0 0-3.613 3.613v8.43a4.817 4.817 0 0 1-4.817 4.816 4.817 4.817 0 0 1-4.817-4.817v-8.43a3.604 3.604 0 0 0-3.612-3.612 3.604 3.604 0 0 0-3.612 3.613v-3.613z"/><path style="fill:#fdc500;fill-opacity:1;stroke-width:.208563;stroke-linecap:square;paint-order:stroke fill markers" d="M379.961 363.846a3.605 3.605 0 0 0-3.612 3.612 3.605 3.605 0 0 0 3.612 3.613 3.605 3.605 0 0 0 3.613-3.613 3.604 3.604 0 0 0-3.613-3.612zm-15.654 13.245a3.605 3.605 0 0 0-3.613 3.613 3.605 3.605 0 0 0 3.613 3.613 3.605 3.605 0 0 0 3.612-3.613 3.605 3.605 0 0 0-3.612-3.613zm56.596 3.613a3.605 3.605 0 0 0-3.612 3.613 3.605 3.605 0 0 0 3.612 3.612 3.605 3.605 0 0 0 3.613-3.612 3.605 3.605 0 0 0-3.613-3.613zm24.084 0a3.605 3.605 0 0 0-3.612 3.613 3.604 3.604 0 0 0 3.612 3.612 3.605 3.605 0 0 0 3.613-3.612 3.605 3.605 0 0 0-3.613-3.613z"/></svg>