<?xml version="1.0" encoding="utf-8"?>
<svg viewBox="0 0 460 160" xmlns="http://www.w3.org/2000/svg">
  <path d="M 60 115 C 60 123.284 53.284 130 45 130 C 36.716 130 30 123.284 30 115 L 30 80 C 30 52.386 52.386 30 80 30 C 107.614 30 130 52.386 130 80 C 130 52.386 152.386 30 180 30 C 207.614 30 230 52.386 230 80 L 230 115 C 230 123.284 223.284 130 215 130 C 206.716 130 200 123.284 200 115 L 200 80 C 200 68.954 191.046 60 180 60 C 168.954 60 160 68.954 160 80 L 160 115 C 160 123.284 153.284 130 145 130 C 136.716 130 130 123.284 130 115 C 130 123.284 123.284 130 115 130 C 106.716 130 100 123.284 100 115 L 100 80 C 100 68.954 91.046 60 80 60 C 68.954 60 60 68.954 60 80 L 60 115 Z M 260 80 C 260 91.046 268.954 100 280 100 C 291.046 100 300 91.046 300 80 L 300 45 C 300 36.716 306.716 30 315 30 C 323.284 30 330 36.716 330 45 C 330 36.716 336.716 30 345 30 C 353.284 30 360 36.716 360 45 L 360 80 C 360 91.046 368.954 100 380 100 C 391.046 100 400 91.046 400 80 L 400 45 C 400 36.716 406.716 30 415 30 C 423.284 30 430 36.716 430 45 L 430 80 C 430 107.614 407.614 130 380 130 C 352.386 130 330 107.614 330 80 C 330 107.614 307.614 130 280 130 C 252.386 130 230 107.614 230 80 L 230 45 C 230 36.716 236.716 30 245 30 C 253.284 30 260 36.716 260 45 L 260 80 Z" style="fill: rgb(16, 73, 17);"/>
  <path d="M 95 94.547 C 95 102.831 88.284 109.547 80 109.547 C 71.715 109.547 65 102.831 65 94.547 C 65 86.263 71.715 79.547 80 79.547 C 88.284 79.547 95 86.263 95 94.547 Z M 160 45 C 160 53.284 153.284 60 145 60 C 136.715 60 130 53.284 130 45 C 130 36.716 136.715 30 145 30 C 153.284 30 160 36.716 160 45 Z M 330 115 C 330 123.284 323.284 130 315 130 C 306.715 130 300 123.284 300 115 C 300 106.716 306.715 100 315 100 C 323.284 100 330 106.716 330 115 Z M 430 115 C 430 123.284 423.284 130 415 130 C 406.715 130 400 123.284 400 115 C 400 106.716 406.715 100 415 100 C 423.284 100 430 106.716 430 115 Z" style="fill: rgb(253, 197, 0);"/>
</svg>